<?xml version="1.0" encoding="UTF-8"?>
<svg xmlns="http://www.w3.org/2000/svg" xmlns:xlink="http://www.w3.org/1999/xlink" viewBox="0 0 64 64" width="64px" height="64px">
  <defs>
    <filter id="alpha" filterUnits="objectBoundingBox" x="0%" y="0%" width="100%" height="100%">
      <feColorMatrix type="matrix" in="SourceGraphic" values="0 0 0 0 1 0 0 0 0 1 0 0 0 0 1 0 0 0 1 0"/>
    </filter>
    <mask id="mask0">
      <g filter="url(#alpha)">
        <rect x="0" y="0" width="64" height="64" style="fill:rgb(0%,0%,0%);fill-opacity:0.3;stroke:none;"/>
      </g>
    </mask>
  </defs>
  <g id="surface197118949">
    <!-- Close Icon Paths -->
    <path style="stroke:none;fill-rule:nonzero;fill:white;fill-opacity:1;" d="M 42.964844 30 L 51.097656 21.863281 C 52.660156 20.304688 52.660156 17.769531 51.097656 16.207031 L 45.792969 10.902344 C 44.230469 9.339844 41.699219 9.339844 40.136719 10.902344 L 32 19.039062 L 23.863281 10.902344 C 22.300781 9.339844 19.769531 9.339844 18.207031 10.902344 L 12.902344 16.207031 C 11.339844 17.769531 11.339844 20.304688 12.902344 21.863281 L 21.035156 30 L 12.902344 38.136719 C 11.339844 39.695312 11.339844 42.230469 12.902344 43.792969 L 18.207031 49.097656 C 19.769531 50.660156 22.300781 50.660156 23.863281 49.097656 L 32 40.964844 L 40.136719 49.097656 C 41.699219 50.660156 44.230469 50.660156 45.792969 49.097656 L 51.097656 43.792969 C 52.660156 42.230469 52.660156 39.695312 51.097656 38.136719 Z M 42.964844 30 "/>
  </g>
</svg>
